# xmcd
#
# Track frame offsets: 
#        150
#        20016
#        32428
#        52287
#        72331
#        87376
#        102818
#        123809
#        142166
#        163458
#        180074
#        197437
#        213975
#
# Disc length: 3198 seconds
#
# Revision: 6
# Processed by: cddbd v1.5.2PL0 Copyright (c) Steve Scherf et al.
# Submitted via: ExactAudioCopy v0.99pb3
#
DISCID=b50c7c0d
DTITLE=Various Artist - Tatuaje [CD2]
DYEAR=2007
DGENRE=Folklore
TTITLE0=Chonchi Heredia-Francisco Alegre
TTITLE1=Diego el Cigala-Suspiros de España
TTITLE2=Papá Levante-Limosna de amores
TTITLE3=Lolita-Callejuela sin salida
TTITLE4=Andy and Lucas-La lirio
TTITLE5=David Bisbal-Triniá
TTITLE6=Diego Torres-La zarzamora
TTITLE7=Pasión Vega-Malagueña
TTITLE8=Lichis-Romance de la reina Mercedes
TTITLE9=Chenoa-El beso
TTITLE10=Carmen París-No te mires en el río
TTITLE11=Valderrama-El emigrante
TTITLE12=Arturo Pareja Obregón-Dime que me quieres
EXTD=YEAR: 2003
EXTT0=
EXTT1=
EXTT2=
EXTT3=
EXTT4=
EXTT5=
EXTT6=
EXTT7=
EXTT8=
EXTT9=
EXTT10=
EXTT11=
EXTT12=
PLAYORDER=
